<svg width="65" height="65" viewBox="0 0 65 65" fill="none" xmlns="http://www.w3.org/2000/svg">
<path d="M32.4958 0C50.4446 0 64.9916 13.5078 64.9916 30.1786C64.9916 37.0848 62.4655 43.4107 58.2766 48.5033C60.168 54.2199 64.103 59.0658 64.1665 59.1239C65.0043 60.1395 65.2328 61.6194 64.7504 62.8962C64.268 64.173 63.1637 65 61.9451 65C54.1385 65 47.9821 61.2712 44.2882 58.2824C40.6197 59.6027 36.6593 60.3571 32.4958 60.3571C14.5469 60.3571 1.21065e-06 46.8493 1.21065e-06 30.1786C1.21065e-06 13.5078 14.5469 0 32.4958 0ZM32.4958 53.3929C35.885 53.3929 39.2361 52.798 42.4476 51.6373L45.3291 50.5926L47.8043 52.5949C49.6195 54.0603 52.1075 55.6998 55.1032 56.8025C54.1766 55.0469 53.2753 53.0737 52.5772 50.9699L51.2316 46.8929L53.8465 43.7299C56.1441 40.9297 58.8986 36.3013 58.8986 30.1786C58.8986 17.3817 47.0554 6.96429 32.4958 6.96429C17.9361 6.96429 6.09296 17.3817 6.09296 30.1786C6.09296 42.9754 17.9361 53.3929 32.4958 53.3929Z" fill="black"/>
</svg>
